<svg xmlns="http://www.w3.org/2000/svg" viewBox="0 0 400 300" fill="none">
  <!-- Background -->
  <rect width="400" height="300" fill="#0f1219"/>

  <!-- DNA Double Helix -->
  <g transform="translate(200, 150)">
    <!-- Left Strand -->
    <path d="M-60,-120 Q-30,-100 -60,-80 Q-90,-60 -60,-40 Q-30,-20 -60,0 Q-90,20 -60,40 Q-30,60 -60,80 Q-90,100 -60,120"
          stroke="#9b2335" stroke-width="3" fill="none"/>

    <!-- Right Strand -->
    <path d="M60,-120 Q30,-100 60,-80 Q90,-60 60,-40 Q30,-20 60,0 Q90,20 60,40 Q30,60 60,80 Q90,100 60,120"
          stroke="#9b2335" stroke-width="3" fill="none"/>

    <!-- Base Pairs -->
    <g stroke="#3a4256" stroke-width="2">
      <line x1="-50" y1="-110" x2="50" y2="-110"/>
      <line x1="-70" y1="-90" x2="70" y2="-90"/>
      <line x1="-50" y1="-70" x2="50" y2="-70"/>
      <line x1="-70" y1="-50" x2="70" y2="-50"/>
      <line x1="-50" y1="-30" x2="50" y2="-30"/>
      <line x1="-70" y1="-10" x2="70" y2="-10"/>
      <line x1="-50" y1="10" x2="50" y2="10"/>
      <line x1="-70" y1="30" x2="70" y2="30"/>
      <line x1="-50" y1="50" x2="50" y2="50"/>
      <line x1="-70" y1="70" x2="70" y2="70"/>
      <line x1="-50" y1="90" x2="50" y2="90"/>
      <line x1="-70" y1="110" x2="70" y2="110"/>
    </g>

    <!-- Base Pair Nodes -->
    <g fill="#9b2335">
      <circle cx="-50" cy="-110" r="4"/>
      <circle cx="50" cy="-110" r="4"/>
      <circle cx="-70" cy="-90" r="4"/>
      <circle cx="70" cy="-90" r="4"/>
      <circle cx="-50" cy="-70" r="4"/>
      <circle cx="50" cy="-70" r="4"/>
      <circle cx="-70" cy="-50" r="4"/>
      <circle cx="70" cy="-50" r="4"/>
      <circle cx="-50" cy="-30" r="4"/>
      <circle cx="50" cy="-30" r="4"/>
      <circle cx="-70" cy="-10" r="4"/>
      <circle cx="70" cy="-10" r="4"/>
    </g>
    <g fill="#6b2535">
      <circle cx="-50" cy="10" r="4"/>
      <circle cx="50" cy="10" r="4"/>
      <circle cx="-70" cy="30" r="4"/>
      <circle cx="70" cy="30" r="4"/>
      <circle cx="-50" cy="50" r="4"/>
      <circle cx="50" cy="50" r="4"/>
      <circle cx="-70" cy="70" r="4"/>
      <circle cx="70" cy="70" r="4"/>
      <circle cx="-50" cy="90" r="4"/>
      <circle cx="50" cy="90" r="4"/>
      <circle cx="-70" cy="110" r="4"/>
      <circle cx="70" cy="110" r="4"/>
    </g>
  </g>

  <!-- Labels -->
  <text x="320" y="60" font-family="monospace" font-size="10" fill="#5a6275">CODIS</text>
  <text x="320" y="75" font-family="monospace" font-size="10" fill="#5a6275">MATCH</text>
  <rect x="315" y="50" width="50" height="30" fill="none" stroke="#9b2335" stroke-width="1"/>

  <!-- Sequence Data -->
  <g font-family="monospace" font-size="8" fill="#3a4256">
    <text x="30" y="40">ATCGATCG</text>
    <text x="30" y="52">TAGCTAGC</text>
    <text x="30" y="64">GCTAGCTA</text>
    <text x="30" y="260">CGATCGAT</text>
    <text x="30" y="272">GCTAGCTA</text>
    <text x="30" y="284">ATCGATCG</text>
  </g>

  <!-- Corner diamonds -->
  <g fill="#9b2335" opacity="0.5">
    <polygon points="30,30 38,38 30,46 22,38"/>
    <polygon points="370,30 378,38 370,46 362,38"/>
  </g>
</svg>
